<?xml version="1.0" encoding="UTF-8" standalone="no"?>
<!-- Created with Inkscape (http://www.inkscape.org/) -->

<svg
   width="193.97665mm"
   height="193.97348mm"
   viewBox="0 0 193.97665 193.97348"
   version="1.1"
   id="svg5"
   xml:space="preserve"
   inkscape:version="1.2.2 (b0a84865, 2022-12-01)"
   sodipodi:docname="soccer-ball.svg"
   xmlns:inkscape="http://www.inkscape.org/namespaces/inkscape"
   xmlns:sodipodi="http://sodipodi.sourceforge.net/DTD/sodipodi-0.dtd"
   xmlns="http://www.w3.org/2000/svg"
   xmlns:svg="http://www.w3.org/2000/svg"><sodipodi:namedview
     id="namedview7"
     pagecolor="#ffffff"
     bordercolor="#000000"
     borderopacity="0.25"
     inkscape:showpageshadow="2"
     inkscape:pageopacity="0.0"
     inkscape:pagecheckerboard="0"
     inkscape:deskcolor="#d1d1d1"
     inkscape:document-units="mm"
     showgrid="false"
     inkscape:zoom="0.63881014"
     inkscape:cx="230.11532"
     inkscape:cy="400.74505"
     inkscape:window-width="1442"
     inkscape:window-height="760"
     inkscape:window-x="0"
     inkscape:window-y="38"
     inkscape:window-maximized="0"
     inkscape:current-layer="layer1" /><defs
     id="defs2" /><g
     inkscape:label="Layer 1"
     inkscape:groupmode="layer"
     id="layer1"
     transform="translate(-313.07734,-69.349514)"><path
       style="fill:#000000;stroke-width:1"
       d="m 403.47315,263.13611 c -10.57629,-0.864 -18.67776,-2.63706 -27.86944,-6.09943 -1.16417,-0.43853 -2.35479,-0.90121 -2.64584,-1.02821 -0.29104,-0.12698 -1.01828,-0.43496 -1.61608,-0.68437 -8.23024,-3.43383 -18.70029,-10.14944 -25.72419,-16.4998 -1.15465,-1.04392 -6.8157,-6.70725 -7.94797,-7.95116 -2.12904,-2.33897 -5.36823,-6.47861 -7.9362,-10.14236 -2.47624,-3.53288 -6.88313,-11.55182 -8.67581,-15.7868 -4.08811,-9.65769 -6.61978,-19.52592 -7.44398,-29.01598 -0.10954,-1.26118 -0.27632,-2.88836 -0.37064,-3.61597 -0.22057,-1.70155 -0.22099,-10.06611 -6e-4,-11.90625 0.093,-0.77611 0.25845,-2.44298 0.36777,-3.70416 0.18912,-2.18184 1.24366,-9.18323 1.58076,-10.49514 0.0873,-0.33955 0.3282,-1.37143 0.53545,-2.29306 2.286,-10.16595 6.75185,-20.6466 12.84093,-30.13563 8.28943,-12.918 20.24193,-24.203359 33.80723,-31.920242 5.47144,-3.112534 12.96509,-6.38598 18.25625,-7.974869 0.7276,-0.218493 1.78753,-0.543411 2.35539,-0.722041 4.44203,-1.397313 12.05263,-2.83781 17.57656,-3.326804 1.21267,-0.107349 2.95892,-0.279137 3.88055,-0.38175 1.61398,-0.179699 10.37458,-0.108963 12.52362,0.101119 5.09157,0.497735 7.14523,0.754105 9.96597,1.24411 3.15888,0.548746 8.12745,1.693625 10.25641,2.363325 0.56786,0.17863 1.62779,0.503548 2.35539,0.722041 7.15814,2.149525 15.68858,6.174355 22.93056,10.819091 2.37045,1.520318 8.03737,5.628523 9.08682,6.587449 0.19557,0.178696 0.83057,0.720026 1.41111,1.202956 2.10567,1.751614 6.57596,6.089299 9.09306,8.823335 4.27121,4.63931 8.97034,11.15096 12.47448,17.28611 1.10268,1.93059 3.26884,6.22429 4.3159,8.55486 2.1847,4.86273 4.4181,11.55248 5.5944,16.75694 0.20832,0.92163 0.45225,1.9932 0.54207,2.38125 0.55079,2.37952 1.30586,7.40381 1.57725,10.49514 0.10647,1.21267 0.27797,2.95892 0.38112,3.88056 0.18112,1.61822 0.10714,10.65789 -0.10322,12.6118 -0.0522,0.48507 -0.18135,1.75507 -0.28695,2.82222 -1.74507,17.63444 -8.24622,34.30419 -18.91187,48.49235 -4.68474,6.23197 -10.82619,12.56085 -16.97209,17.49006 -13.91417,11.15961 -30.63321,18.26648 -48.13323,20.46028 -5.81458,0.72893 -14.19137,0.98766 -19.07094,0.58903 z m 14.11112,-5.18285 c 3.43553,-0.30787 7.27133,-0.83959 10.17662,-1.4107 2.81131,-0.55263 7.85902,-1.82499 8.44762,-2.12937 0.46259,-0.23922 0.7737,-0.88522 1.27042,-2.63797 0.32802,-1.15748 0.24818,-1.32284 -0.63888,-1.32323 -0.40422,0 -1.80651,-0.11532 -3.1162,-0.25585 -5.32795,-0.57171 -7.40042,-0.9579 -12.78819,-2.38296 -1.42598,-0.37718 -4.34633,-1.49529 -6.04315,-2.31375 -2.22725,-1.0743 -4.18341,-2.33832 -6.1011,-3.94237 -0.76149,-0.63695 -1.45624,-1.11377 -1.54388,-1.05961 -0.0877,0.0542 -0.53617,0.16432 -0.99673,0.24477 -7.96969,1.39224 -8.68258,1.50216 -13.18459,2.0329 -5.93465,0.69963 -12.68001,0.77825 -15.875,0.18502 -1.88777,-0.35051 -1.95792,-0.34351 -2.16625,0.21613 -0.0993,0.26678 -0.51359,1.3185 -0.92059,2.33715 -1.14698,2.87068 -1.2301,2.50234 1.08332,4.8006 l 2.00352,1.99037 2.99861,1.00859 c 7.70708,2.59232 14.08632,3.93226 22.40139,4.70532 2.70391,0.25139 11.90747,0.21147 14.99306,-0.065 z m -48.92851,-11.1718 c 0.28547,-0.29944 1.24124,-2.58701 2.04061,-4.88401 l 0.42968,-1.23473 -0.67159,-0.55997 c -0.36937,-0.30799 -1.88232,-1.56222 -3.36212,-2.78718 -4.19475,-3.4724 -8.75104,-8.14136 -11.70913,-11.99868 -2.89803,-3.77901 -5.83696,-9.58785 -6.39416,-12.63818 -0.1497,-0.81946 -0.25705,-0.89755 -1.96654,-1.43038 -7.60705,-2.37103 -14.31761,-7.45 -18.70044,-14.15366 -0.57085,-0.87313 -1.06815,-1.62719 -1.10513,-1.67569 -0.1406,-0.18446 -1.3056,1.35863 -1.8301,2.42405 -0.65746,1.33547 -0.8256,2.61975 -0.44997,3.43677 0.146,0.31755 0.60688,1.37112 1.02418,2.34126 1.68345,3.91365 4.4506,8.97395 7.13772,13.05278 1.43955,2.18512 4.21704,6.03964 5.17174,7.17719 4.91624,5.85787 9.92431,10.82509 14.66722,14.54761 3.97245,3.1178 8.37821,6.07264 11.99445,8.04437 0.53358,0.29093 1.04951,0.6043 1.14653,0.69641 0.27442,0.26051 2.24891,-0.0137 2.57705,-0.35796 z m 73.48537,-1.46583 c 1.76635,-0.5658 3.9844,-1.38846 5.69383,-2.11179 1.33296,-0.56403 6.08487,-2.98505 7.05556,-3.59469 3.31165,-2.07988 5.43871,-3.60855 8.08036,-5.8072 3.15199,-2.6234 7.52352,-7.35469 8.3132,-8.99733 0.35381,-0.73597 1.22994,-3.95939 1.68258,-6.19051 1.43208,-7.05873 1.52354,-14.55428 0.25203,-20.65501 l -0.37128,-1.7814 -1.7024,-0.56955 c -2.5757,-0.8617 -8.01156,-2.7871 -11.49199,-4.0705 -0.82462,-0.30408 -2.21368,-0.81483 -3.08681,-1.13502 -2.9138,-1.06853 -6.85069,-2.53151 -9.65659,-3.58847 -2.44416,-0.92069 -2.80396,-1.01391 -2.99861,-0.77692 -0.89447,1.08904 -8.64506,7.89098 -10.89116,9.55812 -0.32676,0.24254 -0.95688,0.72184 -1.40026,1.06511 -4.58355,3.54867 -10.56796,7.279 -15.91059,9.91774 l -3.28638,1.62314 -0.11262,1.41402 c -0.17602,2.2098 -0.52876,7.66491 -0.98679,15.26055 -0.33838,5.61137 -0.57136,11.80361 -0.45906,12.20098 0.12388,0.43832 1.94219,2.05186 3.16127,2.80526 4.62553,2.85861 11.12139,4.72776 19.52204,5.61734 2.83149,0.29985 2.95562,0.30828 4.98088,0.33847 1.68148,0.025 2.08698,-0.0336 3.61279,-0.52234 z m 38.19435,-21.26753 1.89705,-0.4614 1.21557,-1.61019 c 11.55154,-15.30157 17.94742,-33.47469 18.63456,-52.94791 0.13626,-3.86144 0.0458,-4.23324 -1.35753,-5.58011 l -1.05676,-1.01424 h -2.96219 -2.96218 l -0.31567,0.83785 c -0.96548,2.56267 -4.90731,10.51465 -8.37203,16.88924 -0.26365,0.48507 -0.77825,1.43757 -1.14357,2.11666 -0.36532,0.6791 -0.80327,1.47285 -0.97323,1.76389 -0.16997,0.29104 -0.56499,1.00542 -0.87784,1.5875 -0.31284,0.58209 -1.56052,2.82334 -2.77261,4.98056 l -2.20381,3.92224 0.2109,0.92846 c 0.72674,3.19958 1.00251,5.16818 1.239,8.84464 0.2577,4.00631 -0.0114,8.82684 -0.71513,12.80952 -0.40278,2.27951 -0.92322,4.66168 -1.30648,5.97994 -0.22621,0.77806 -0.36189,1.46497 -0.30152,1.52647 0.18151,0.18491 2.1073,-0.0828 4.12347,-0.57312 z M 351.1568,206.49965 c 6.70906,-6.21015 11.22181,-10.46941 15.0983,-14.25021 1.84326,-1.79776 3.81681,-3.76048 4.38566,-4.36159 l 1.03427,-1.09293 -0.36017,-1.90568 c -0.63644,-3.36743 -1.10978,-7.80117 -1.4369,-13.45915 -0.10376,-1.79476 -0.26447,-4.37445 -0.35712,-5.73264 -0.0927,-1.3582 -0.17999,-3.73945 -0.19408,-5.29167 -0.0141,-1.55222 -0.076,-4.36409 -0.13753,-6.24859 l -0.11191,-3.42637 -6.4382,-4.45729 c -3.541,-2.4515 -6.79538,-4.70411 -7.23194,-5.00579 -2.93365,-2.02723 -8.82943,-5.96346 -9.07114,-6.05621 -0.38753,-0.14872 -2.069,0.43056 -4.29195,1.47862 -5.23998,2.47047 -9.76153,6.49981 -13.44299,11.97957 -1.55195,2.31004 -2.13467,3.54606 -2.30963,4.89904 -0.74446,5.7569 -0.76001,5.99965 -0.77107,12.04049 -0.0106,5.80776 0.0626,7.13018 0.62538,11.28889 0.0985,0.72761 0.24704,1.64042 0.33018,2.02847 0.0831,0.38806 0.24822,1.18181 0.36682,1.76389 0.84027,4.12378 2.29342,8.60341 3.68532,11.36075 2.24012,4.43765 6.79762,9.22894 11.36007,11.9428 2.0438,1.21571 7.129,3.40058 7.94572,3.41389 0.18465,0.003 0.77996,-0.40572 1.32291,-0.90829 z m 60.46643,-2.94576 c 6.30378,-2.78158 15.33056,-8.56241 21.2582,-13.61396 3.83623,-3.26924 3.42127,-2.90095 6.05703,-5.37584 l 2.23704,-2.1005 -0.1157,-1.23932 c -0.0636,-0.68163 -0.19485,-2.2712 -0.29159,-3.53238 -0.0967,-1.26118 -0.21892,-2.68993 -0.27151,-3.175 -0.0526,-0.48507 -0.16721,-1.83444 -0.25471,-2.99861 -0.0875,-1.16416 -0.2432,-3.02948 -0.34601,-4.14514 -0.10281,-1.11566 -0.262,-2.98097 -0.35375,-4.14514 -0.0918,-1.16416 -0.24365,-2.98979 -0.33754,-4.05694 -0.0939,-1.06715 -0.29642,-3.36903 -0.45007,-5.11528 -0.15364,-1.74625 -0.35683,-4.04812 -0.45152,-5.11528 -0.0947,-1.06715 -0.25396,-2.92346 -0.35392,-4.12513 -0.1,-1.20167 -0.25499,-2.32169 -0.3445,-2.48894 -0.1915,-0.35781 -3.86219,-2.79099 -6.25357,-4.14529 -3.26954,-1.85161 -8.0791,-4.13629 -12.00295,-5.70176 -3.31235,-1.32149 -4.23505,-1.65991 -7.32014,-2.68481 -4.71455,-1.56623 -5.64228,-1.81376 -6.06899,-1.61933 -0.56303,0.25656 -12.94278,8.29247 -17.31519,11.2396 -6.63772,4.47401 -12.08765,8.45607 -13.88197,10.14303 l -1.03188,0.97013 0.1874,6.08542 c 0.10307,3.34698 0.30723,8.18885 0.4537,10.75972 0.14646,2.57087 0.30907,5.58712 0.36134,6.70278 0.21308,4.54766 1.0799,11.03702 1.55784,11.6626 0.10746,0.14065 0.47319,0.42063 0.81274,0.62217 0.33955,0.20154 2.12549,1.27889 3.96875,2.39412 3.80326,2.30107 8.73147,5.17031 12.87639,7.4967 5.00195,2.80741 6.51957,3.62039 9.87778,5.29147 1.55223,0.7724 3.37785,1.62411 4.05695,1.89268 0.67909,0.26857 1.39347,0.55369 1.5875,0.6336 0.51963,0.214 0.47654,0.22431 2.15285,-0.51537 z m 88.27244,-46.72153 c 0.93382,-1.4699 1.38512,-2.43427 1.38512,-2.9597 0,-0.25397 -0.15668,-1.34853 -0.3482,-2.43237 -0.60987,-3.45153 -0.67841,-3.78372 -1.44378,-6.9977 -0.81908,-3.43954 -2.93783,-9.87781 -4.31135,-13.10101 -0.34008,-0.79809 -0.75301,-1.76635 -0.91758,-2.15169 -0.4759,-1.11429 -2.75884,-5.68394 -3.65952,-7.32508 -3.76552,-6.86127 -8.73841,-13.5429 -14.47359,-19.44687 l -2.35601,-2.425348 h -0.94106 c -0.51758,0 -1.37236,0.07368 -1.8995,0.163748 -0.52714,0.0901 -1.41976,0.21545 -1.9836,0.27864 -0.57552,0.0645 -1.06311,0.21378 -1.11168,0.34035 -0.0476,0.12401 0.29882,1.01065 0.7698,1.97032 3.48388,7.09886 5.44706,15.84238 5.08492,22.64694 l -0.11734,2.20486 1.25685,1.23472 c 4.45597,4.37754 9.46236,11.50506 14.0671,20.02712 0.8706,1.61126 3.56365,6.98859 4.08215,8.15101 l 0.37371,0.83784 2.95011,-0.002 2.9501,-0.002 0.64335,-1.0127 z M 324.80506,146.07418 c 4.62476,-6.96751 10.6164,-11.93697 17.55552,-14.56053 l 2.00573,-0.75833 0.47673,-2.39251 c 0.83234,-4.17721 2.24197,-8.81562 3.51534,-11.56725 0.19031,-0.41126 0.34602,-0.79522 0.34602,-0.85325 0,-0.20131 2.45563,-5.02794 2.81437,-5.53175 0.19835,-0.27855 0.36063,-0.56198 0.36063,-0.62985 0,-0.20225 2.61213,-3.95892 3.67844,-5.2902 0.54393,-0.6791 1.96725,-2.23949 3.16293,-3.46753 l 2.17396,-2.23281 -1.41407,-2.706081 -1.41407,-2.70608 -1.55019,0.02372 c -2.36669,0.03621 -2.6928,0.17873 -5.26034,2.298838 -2.78213,2.297299 -9.08655,8.574193 -11.39736,11.347583 -3.88539,4.66319 -7.16681,9.40181 -10.07708,14.55208 -1.08066,1.91243 -4.19123,8.40985 -5.02444,10.49514 -1.47592,3.69382 -3.28354,9.30502 -4.00275,12.42529 -0.10956,0.47533 -0.006,0.62759 1.23356,1.80798 0.74426,0.70892 1.45207,1.28895 1.57291,1.28895 0.12084,0 0.68072,-0.69453 1.24416,-1.54341 z m 117.22737,-8.74751 c 1.10559,-0.51827 2.28798,-1.06697 2.62753,-1.21934 0.96077,-0.43113 8.47502,-3.4828 8.57584,-3.4828 0.0494,0 0.52365,-0.19843 1.05388,-0.44097 0.53024,-0.24253 1.018,-0.44097 1.08392,-0.44097 0.0659,0 1.43278,-0.50735 3.03748,-1.12744 1.6047,-0.62008 3.71138,-1.41983 4.68152,-1.77721 0.97014,-0.35737 1.92264,-0.71608 2.11667,-0.79712 0.19402,-0.081 1.11985,-0.43576 2.05738,-0.78824 l 1.70461,-0.64089 0.11632,-1.4474 c 0.30845,-3.83836 -0.62109,-9.8885 -2.28404,-14.86623 -1.35245,-4.04829 -3.85102,-9.09048 -5.07839,-10.24833 -2.11363,-1.99392 -9.11363,-6.983852 -12.14614,-8.658351 -9.87498,-5.45278 -18.26753,-7.548605 -24.93919,-6.227934 -7.76628,1.537354 -14.19318,4.212307 -19.05,7.928835 -1.25343,0.95915 -3.9232,3.486996 -4.1702,3.948521 -0.12878,0.240635 0.16853,1.695969 1.1544,5.650799 1.59292,6.39002 4.44273,18.0293 4.71603,19.26141 0.38039,1.71489 0.45116,1.81237 1.5373,2.11769 4.21196,1.18397 12.40018,4.19405 16.6705,6.12826 4.5672,2.06866 9.63971,4.85408 12.90031,7.08382 0.77611,0.53074 1.45903,0.96975 1.5176,0.97559 0.0586,0.006 1.01107,-0.41343 2.11667,-0.9317 z M 367.66621,96.132485 c 3.20234,-0.793924 4.70363,-1.104634 8.90764,-1.843528 5.26312,-0.925044 9.4734,-1.351921 13.33399,-1.351921 2.9875,0 4.47717,0.142258 6.74617,0.644231 l 1.29474,0.286438 1.52109,-1.479571 c 0.8366,-0.813763 1.56366,-1.523371 1.61567,-1.576905 1.06545,-1.096465 4.83546,-3.627636 7.4944,-5.031725 4.24713,-2.242752 10.12144,-4.238281 14.737,-5.006218 1.8502,-0.307839 1.819,-0.29265 1.68643,-0.820843 -0.23233,-0.92567 -2.0136,-4.451504 -2.33001,-4.611999 -0.31862,-0.161617 -2.2975,-0.392218 -6.42132,-0.748287 -4.28614,-0.370083 -12.32453,-0.133023 -17.54136,0.517312 -10.645,1.327015 -20.43002,4.328984 -30.33889,9.307736 -3.30869,1.662467 -3.68364,1.90804 -4.46919,2.927133 -0.9909,1.285472 -1.969,2.950922 -1.969,3.352672 0,0.186103 0.5451,1.381397 1.21134,2.656211 0.66624,1.274813 1.34506,2.579851 1.50848,2.900083 0.20663,0.404889 0.38836,0.555086 0.59664,0.493092 0.16473,-0.04903 1.25201,-0.325291 2.41618,-0.613911 z"
       id="path1582"
       sodipodi:nodetypes="ssscsssssscsccssssssssssssssssssssscsssssssscssssscssssscsssssscsssssscsssssssssssssssscsssssssscssssscsccssscccsssssscsssssccsscsscsccscscssccccssscssscccssscssscssssssscssssssssssscssssssscsssscscsssccccccscssssssscccsscssscscssssssscscssssssssscsscssssscscssssssscsssss" /></g></svg>
